<?xml version="1.0" standalone="no"?>
<!DOCTYPE svg PUBLIC "-//W3C//DTD SVG 20010904//EN"
 "http://www.w3.org/TR/2001/REC-SVG-20010904/DTD/svg10.dtd">
<svg version="1.0" xmlns="http://www.w3.org/2000/svg"
 width="253.000000pt" height="256.000000pt" viewBox="0 0 253.000000 256.000000"
 preserveAspectRatio="xMidYMid meet">

<g transform="translate(0.000000,256.000000) scale(0.100000,-0.100000)"
fill="#000000" stroke="none">
<path d="M1085 2549 c-410 -64 -763 -318 -950 -685 -200 -391 -176 -880 61
-1246 302 -469 852 -685 1391 -548 409 105 755 433 881 837 17 54 37 125 44
158 17 82 17 371 -1 460 -35 175 -117 366 -218 507 -65 90 -212 236 -303 300
-128 91 -306 168 -472 204 -86 19 -346 27 -433 13z m781 -1162 c20 -24 24 -39
24 -93 0 -59 -3 -68 -29 -95 l-29 -29 -567 0 -567 0 -29 29 c-26 26 -29 36
-29 93 0 68 16 103 54 118 11 5 275 8 584 7 l564 -2 24 -28z"/>
</g>
</svg>
