<?xml version="1.0" standalone="no"?>
<!DOCTYPE svg PUBLIC "-//W3C//DTD SVG 20010904//EN"
 "http://www.w3.org/TR/2001/REC-SVG-20010904/DTD/svg10.dtd">
<svg version="1.0" xmlns="http://www.w3.org/2000/svg"
 width="256.000000pt" height="256.000000pt" viewBox="0 0 256.000000 256.000000"
 preserveAspectRatio="xMidYMid meet">

<g transform="translate(0.000000,256.000000) scale(0.100000,-0.100000)"
fill="#000000" stroke="none">
<path d="M1130 2553 c-175 -27 -295 -65 -434 -136 -250 -127 -441 -323 -567
-582 -140 -287 -167 -595 -79 -915 29 -104 126 -300 197 -396 190 -255 462
-430 778 -500 99 -21 314 -29 416 -15 143 21 268 58 394 120 356 174 595 470
692 858 25 98 27 125 27 293 0 168 -2 195 -27 293 -97 388 -336 684 -692 858
-129 63 -218 91 -360 114 -81 14 -282 18 -345 8z m241 -662 c24 -19 24 -22 29
-253 l5 -233 233 -5 c231 -5 234 -5 253 -29 14 -18 19 -39 19 -91 0 -52 -5
-73 -19 -91 -19 -24 -22 -24 -253 -29 l-233 -5 -5 -233 c-5 -231 -5 -234 -29
-253 -33 -27 -149 -27 -182 0 -24 19 -24 22 -29 253 l-5 233 -233 5 c-231 5
-234 5 -253 29 -27 33 -27 149 0 182 19 24 22 24 253 29 l233 5 5 233 c5 231
5 234 29 253 18 14 39 19 91 19 52 0 73 -5 91 -19z"/>
</g>
</svg>
